<svg xmlns="http://www.w3.org/2000/svg" width="256" height="256" viewBox="0 0 100 100"><rect width="100" height="100" rx="50" fill="#4c311e"></rect><path fill="#fff" d="M43.84 83.34L43.84 83.34Q30.97 83.34 26.02 77.76L26.02 77.76Q22.60 73.80 22.60 66.69L22.60 66.69Q22.60 63.63 23.23 60.12L23.23 60.12L26.92 39.42Q30.97 16.66 56.16 16.66L56.16 16.66Q66.61 16.66 72.00 21.11Q77.41 25.56 77.41 33.30L77.41 33.30Q77.41 36.90 76.37 40.46Q75.34 44.01 74.34 45.72L74.34 45.72L73.36 47.52L57.43 47.52Q60.40 44.10 60.40 37.80L60.40 37.80Q60.40 34.47 58.69 32.54Q56.98 30.60 53.65 30.60L53.65 30.60Q44.56 30.60 42.84 40.68L42.84 40.68L39.70 58.86Q39.25 61.20 39.25 63.45L39.25 63.45Q39.25 69.39 46.36 69.39L46.36 69.39Q54.91 69.39 56.62 59.76L56.62 59.76L72.81 59.76L72.37 62.37Q68.77 83.34 43.84 83.34Z"></path></svg>