<svg xmlns="http://www.w3.org/2000/svg" width="308" height="70" viewBox="0 0 308 70"><path fill="#0b0b15" d="M60.40 44.60L56.40 63.50Q53.90 64.70 51.25 65.85Q48.60 67 45.60 67.85Q42.60 68.70 39.05 69.20Q35.50 69.70 31.30 69.70L31.30 69.70Q17.90 69.70 10.65 63.70Q3.40 57.70 3.40 43.70L3.40 43.70Q3.40 35.60 5.90 28.45Q8.40 21.30 13.30 15.95Q18.20 10.60 25.40 7.50Q32.60 4.40 41.90 4.40L41.90 4.40Q46.30 4.40 49.95 5Q53.60 5.60 56.55 6.55Q59.50 7.50 61.85 8.60Q64.20 9.70 66.10 10.70L66.10 10.70L62.50 29.30L44.50 29.30Q44.60 28.30 44.75 26.70Q44.90 25.10 45 23.45Q45.10 21.80 45.20 20.20Q45.30 18.60 45.30 17.50L45.30 17.50Q45.30 16.70 45.20 15.65Q45.10 14.60 44.70 13.60Q44.30 12.60 43.45 11.95Q42.60 11.30 41.20 11.30L41.20 11.30Q38.60 11.30 36.45 13.45Q34.30 15.60 32.60 19.15Q30.90 22.70 29.60 27.20Q28.30 31.70 27.45 36.35Q26.60 41 26.15 45.50Q25.70 50 25.70 53.40L25.70 53.40Q25.70 54.40 25.80 55.90Q25.90 57.40 26.40 58.80Q26.90 60.20 27.95 61.20Q29 62.20 30.80 62.20L30.80 62.20Q33.90 62.20 36.80 58.35Q39.70 54.50 41.90 44.60L41.90 44.60L60.40 44.60ZM95.40 24.80L95.40 24.80Q107.30 24.80 112.70 29L112.70 29Q118.40 33.40 118.40 43.60L118.40 43.60Q118.40 49.90 116.30 54.95Q114.20 60.00 110.40 63.30L110.40 63.30Q102.80 69.70 88.40 69.70L88.40 69.70Q76.10 69.70 70.80 65L70.80 65Q65.10 60.10 65.10 50.30L65.10 50.30Q65.10 43.80 67.75 38.50Q70.40 33.20 75.40 29.70L75.40 29.70Q82.70 24.80 95.40 24.80ZM88.60 62.90L88.60 62.90Q91.10 62.90 92.95 60.10Q94.80 57.30 95.90 53.25Q97 49.20 97.55 44.85Q98.10 40.50 98.10 37.30L98.10 37.30Q98.10 34.50 97.55 33.05Q97 31.60 95.20 31.60L95.20 31.60Q92.50 31.60 90.55 34.50Q88.60 37.40 87.40 41.40Q86.20 45.40 85.65 49.60Q85.10 53.80 85.10 56.40L85.10 56.40Q85.10 62.90 88.60 62.90ZM122.90 32.60L124.40 25.90L132.10 25.90L133 21.80Q134.30 15.80 136.80 11.65Q139.30 7.50 142.75 4.90Q146.20 2.30 150.60 1.15Q155 0 160 0L160 0Q163.10 0 166.60 0.40Q170.10 0.80 173.90 1.70L173.90 1.70L172.30 9.70Q170.10 9.40 167.60 9.25Q165.10 9.10 163.60 9.10L163.60 9.10Q161.60 9.10 160.15 9.40Q158.70 9.70 157.60 10.55Q156.50 11.40 155.70 12.90Q154.90 14.40 154.40 16.90L154.40 16.90L152.50 25.90L163 25.90L161.70 32.60L151.10 32.60L143.40 68.90L123 68.90L130.70 32.60L122.90 32.60ZM163.30 32.60L164.80 25.90L172.50 25.90L173.40 21.80Q174.70 15.80 177.20 11.65Q179.70 7.50 183.15 4.90Q186.60 2.30 191.00 1.15Q195.40 0 200.40 0L200.40 0Q203.50 0 207.00 0.40Q210.50 0.80 214.30 1.70L214.30 1.70L212.70 9.70Q210.50 9.40 208.00 9.25Q205.50 9.10 204.00 9.10L204.00 9.10Q202.00 9.10 200.55 9.40Q199.10 9.70 198.00 10.55Q196.90 11.40 196.10 12.90Q195.30 14.40 194.80 16.90L194.80 16.90L192.90 25.90L203.40 25.90L202.10 32.60L191.50 32.60L183.80 68.90L163.40 68.90L171.10 32.60L163.30 32.60ZM249.50 48.80L221.40 48.80Q221.00 51 220.85 53.00Q220.70 55.00 220.70 56.60L220.70 56.60Q220.70 57.50 220.80 58.60Q220.90 59.70 221.25 60.65Q221.60 61.60 222.25 62.25Q222.90 62.90 224.10 62.90L224.10 62.90Q225.00 62.90 226.15 62.30Q227.30 61.70 228.45 60.60Q229.60 59.50 230.65 57.90Q231.70 56.30 232.30 54.30L232.30 54.30L248.70 54.30L246.10 65Q244.10 66.30 241.50 67.20Q238.90 68.10 236.00 68.65Q233.10 69.20 230.10 69.45Q227.10 69.70 224.40 69.70L224.40 69.70Q219.40 69.70 215.10 68.80Q210.80 67.90 207.60 65.70Q204.40 63.50 202.55 59.85Q200.70 56.20 200.70 50.80L200.70 50.80Q200.70 45.90 202.25 41.20Q203.80 36.50 207.45 32.85Q211.10 29.20 217.25 27Q223.40 24.80 232.60 24.80L232.60 24.80Q242.60 24.80 247.65 27.90Q252.70 31.00 252.70 37.60L252.70 37.60Q252.70 40.30 251.90 43.45Q251.10 46.60 249.50 48.80L249.50 48.80ZM234.70 36.90L234.70 36.90Q234.70 33.80 233.70 32.70Q232.70 31.60 231.30 31.60L231.30 31.60Q229.70 31.60 228.35 32.65Q227.00 33.70 225.90 35.45Q224.80 37.20 223.90 39.45Q223.00 41.70 222.40 44.20L222.40 44.20L233.80 44.20Q234.00 43 234.20 41.70L234.20 41.70Q234.40 40.60 234.55 39.30Q234.70 38 234.70 36.90ZM304.20 48.80L276.10 48.80Q275.70 51 275.55 53.00Q275.40 55.00 275.40 56.60L275.40 56.60Q275.40 57.50 275.50 58.60Q275.60 59.70 275.95 60.65Q276.30 61.60 276.95 62.25Q277.60 62.90 278.80 62.90L278.80 62.90Q279.70 62.90 280.85 62.30Q282 61.70 283.15 60.60Q284.30 59.50 285.35 57.90Q286.40 56.30 287 54.30L287 54.30L303.40 54.30L300.80 65Q298.80 66.30 296.20 67.20Q293.60 68.10 290.70 68.65Q287.80 69.20 284.80 69.45Q281.80 69.70 279.10 69.70L279.10 69.70Q274.10 69.70 269.80 68.80Q265.50 67.90 262.30 65.70Q259.10 63.50 257.25 59.85Q255.40 56.20 255.40 50.80L255.40 50.80Q255.40 45.90 256.95 41.20Q258.50 36.50 262.15 32.85Q265.80 29.20 271.95 27Q278.10 24.80 287.30 24.80L287.30 24.80Q297.30 24.80 302.35 27.90Q307.40 31.00 307.40 37.60L307.40 37.60Q307.40 40.30 306.60 43.45Q305.80 46.60 304.20 48.80L304.20 48.80ZM289.40 36.90L289.40 36.90Q289.40 33.80 288.40 32.70Q287.40 31.60 286 31.60L286 31.60Q284.40 31.60 283.05 32.65Q281.70 33.70 280.60 35.45Q279.50 37.20 278.60 39.45Q277.70 41.70 277.10 44.20L277.10 44.20L288.50 44.20Q288.70 43 288.90 41.70L288.90 41.70Q289.10 40.60 289.25 39.30Q289.40 38 289.40 36.90Z"></path></svg>